G-Force (2009) DIVX     

Vanaf 24 november in de videotheek

De Amerikaanse overheid heeft besloten om dieren te trainen om in de spionage te werken. Het lot van de wereld komt in de handen terecht van twee cavia's, Darwin en Juarez, wanneer zij op pad worden gestuurd om een plan te stoppen van een gestoorde miljardair. Hierbij worden ze bijgestaan door de cavia Blaster, de hamster Bucky, de vlieg Mooch en computerspecialist Speckles, een mol.





English

The story is about a team of trained secret agent guinea pigs that takes on a mission for the US government. A specially trained squad of guinea pigs is dispatched to stop a diabolical billionaire, who plans to taking over the world with household appliances




Spotinformatie 
Categorie : Beeld 
Formaat : DivX
Bron : Retail
Audio : Dutch

Format                           : AVI
Format/Info                      : Audio Video Interleave
File size                        : 811 MiB
Duration                         : 1h 24mn
Overall bit rate                 : 1 340 Kbps
Writing application              : Lavf51.12.1

Video
ID                               : 0
Format                           : MPEG-4 Visual
Format profile                   : Simple@L1
Format settings, BVOP            : No
Format settings, QPel            : No
Format settings, GMC             : No warppoints
Format settings, Matrix          : Default (H.263)
Codec ID                         : DX50
Codec ID/Hint                    : DivX 5
Duration                         : 1h 24mn
Bit rate                         : 1 199 Kbps
Width                            : 720 pixels
Height                           : 576 pixels
Display aspect ratio             : 5/4
Frame rate                       : 25.000 fps
Standard                         : PAL
Resolution                       : 24 bits
Colorimetry                      : 4:2:0
Scan type                        : Progressive
Bits/(Pixel*Frame)               : 0.116
Stream size                      : 726 MiB (89%)
Writing library                  : Lavc51.40.4

Audio
ID                               : 1
Format                           : MPEG Audio
Format version                   : Version 1
Format profile                   : Layer 3
Codec ID                         : 55
Codec ID/Hint                    : MP3
Duration                         : 1h 24mn
Bit rate mode                    : Constant
Bit rate                         : 128 Kbps
Channel(s)                       : 2 channels
Sampling rate                    : 48.0 KHz
Resolution                       : 16 bits
Stream size                      : 77.5 MiB (10%)
Alignment                        : Aligned on interleaves
Interleave, duration             : 24 ms (0.60 video frame)
Interleave, preload duration     : 24 ms
Writing library                  : LAME3.97

 
Genre : Actie
Avontuur
 
Weblink : http://moviemeter.nl/film/54989
Weblink : http://www.imdb.com/title/tt0436339


***************************************** 


Brought to you by

Kellebel 

2Lions Team
     
http://www.2lions.ons-forum.nl

2Lions-Team for all your Dutch MOVIES and more 

*****************************************

DON T HIT AND RUN Niet gelijk afhaken als de film binnen is blijf seeden.	